<?xml version="1.0" standalone="no"?>
<!DOCTYPE svg PUBLIC "-//W3C//DTD SVG 20010904//EN"
 "http://www.w3.org/TR/2001/REC-SVG-20010904/DTD/svg10.dtd">
<svg version="1.0" xmlns="http://www.w3.org/2000/svg"
 width="352.000000pt" height="227.000000pt" viewBox="0 0 352.000000 227.000000"
 preserveAspectRatio="xMidYMid meet">

<g transform="translate(0.000000,227.000000) scale(0.100000,-0.100000)"
fill="#000000" stroke="none">
<path d="M1080 2257 c-50 -16 -143 -112 -158 -163 -40 -136 14 -274 133 -337
32 -17 57 -22 126 -22 78 0 90 3 134 30 96 59 141 148 132 260 -8 102 -64 182
-157 224 -50 23 -150 27 -210 8z"/>
<path d="M1529 2233 c-11 -12 -14 -64 -14 -235 0 -206 1 -221 19 -234 30 -22
438 -20 460 2 14 13 16 49 16 239 0 212 -1 225 -19 235 -12 6 -105 10 -234 10
-187 0 -216 -2 -228 -17z"/>
<path d="M2116 2234 c-14 -13 -16 -49 -16 -233 0 -198 2 -219 18 -234 16 -15
47 -17 230 -17 199 0 213 1 232 20 19 19 20 33 20 228 0 172 -3 211 -16 230
-15 22 -19 22 -234 22 -185 0 -221 -2 -234 -16z"/>
<path d="M953 1655 c-23 -16 -23 -19 -23 -235 0 -185 2 -221 16 -234 23 -24
445 -24 468 0 22 22 24 430 2 460 -13 18 -30 19 -228 22 -182 2 -216 0 -235
-13z"/>
<path d="M1543 1660 c-30 -12 -35 -58 -31 -276 2 -135 6 -185 17 -197 12 -15
41 -17 235 -17 159 0 225 3 234 12 9 9 12 75 12 234 0 219 0 223 -22 238 -19
13 -57 16 -223 15 -110 0 -210 -4 -222 -9z"/>
<path d="M946 1064 c-14 -13 -16 -49 -16 -234 0 -215 0 -219 22 -234 19 -13
58 -16 230 -16 195 0 209 1 228 20 19 19 20 33 20 233 0 195 -2 215 -18 230
-16 15 -48 17 -235 17 -183 0 -218 -2 -231 -16z"/>
<path d="M1529 1063 c-20 -23 -20 -446 -1 -465 10 -10 67 -14 223 -16 179 -3
214 -1 235 13 l24 15 0 223 c0 160 -3 226 -12 235 -9 9 -75 12 -234 12 -194 0
-223 -2 -235 -17z"/>
<path d="M2112 1068 c-9 -9 -12 -75 -12 -235 l0 -223 24 -15 c21 -14 56 -16
236 -13 196 3 213 4 226 22 22 30 20 422 -2 454 -15 22 -19 22 -238 22 -159 0
-225 -3 -234 -12z"/>
<path d="M952 484 c-22 -15 -22 -19 -22 -234 0 -185 2 -221 16 -234 13 -14 49
-16 233 -16 198 0 219 2 234 18 15 16 17 47 17 230 0 199 -1 213 -20 232 -19
19 -33 20 -228 20 -172 0 -211 -3 -230 -16z"/>
<path d="M1534 486 c-18 -13 -19 -28 -19 -234 0 -171 3 -223 14 -235 12 -15
41 -17 235 -17 159 0 225 3 234 12 9 9 12 75 12 234 0 219 0 223 -22 238 -32
22 -424 24 -454 2z"/>
</g>
</svg>
